<svg xmlns="http://www.w3.org/2000/svg" viewBox="0 0 800 600" width="800" height="600" role="img" aria-label="Customer care and billing desk">
  <defs>
    <linearGradient id="c5" x1="0" y1="0" x2="0" y2="1"><stop offset="0" stop-color="#0F172A"/><stop offset="1" stop-color="#334155"/></linearGradient>
    <linearGradient id="w5" x1="0" y1="0" x2="1" y2="1"><stop offset="0" stop-color="#F59E0B"/><stop offset="1" stop-color="#FCD34D"/></linearGradient>
  </defs>
  <rect width="800" height="600" fill="url(#c5)"/>
  <circle cx="400" cy="220" r="200" fill="#2563EB" opacity="0.22"/>
  <!-- desk -->
  <rect x="120" y="360" width="560" height="120" rx="14" fill="#1E293B"/>
  <rect x="120" y="360" width="560" height="20" rx="10" fill="#475569"/>
  <!-- staff -->
  <g>
    <circle cx="300" cy="250" r="46" fill="#FBBF24"/>
    <path d="M254 300h92c26 0 46 20 46 46v22H208v-22c0-26 20-46 46-46z" fill="#2563EB"/>
    <circle cx="520" cy="262" r="42" fill="#F8FAFC"/>
    <path d="M478 308h84c24 0 42 18 42 42v20H436v-20c0-24 18-42 42-42z" fill="#F59E0B"/>
  </g>
  <!-- monitor -->
  <rect x="150" y="286" width="110" height="72" rx="8" fill="#0B1222" stroke="#64748B" stroke-width="2"/>
  <rect x="160" y="296" width="90" height="52" rx="4" fill="#3B82F6" opacity="0.8"/>
  <rect x="640" y="330" width="30" height="6" rx="3" fill="url(#w5)"/>
  <rect x="0" y="480" width="800" height="120" fill="#0B1222"/>
  <text x="400" y="536" text-anchor="middle" font-family="Poppins,Arial,sans-serif" font-size="26" font-weight="700" fill="#F8FAFC" letter-spacing="4">CUSTOMER CARE DESK</text>
  <text x="400" y="568" text-anchor="middle" font-family="Poppins,Arial,sans-serif" font-size="14" fill="#94A3B8" letter-spacing="3">BILLING · EMI · AFTER SALES SUPPORT</text>
</svg>
